<svg xmlns="http://www.w3.org/2000/svg" viewBox="0 0 320 280" role="img" aria-label="Speak Boldly butterfly speech bubble">
<path d="M112 126C84 55 32 28 17 62 1 99 28 136 102 153 38 143 18 170 37 199c20 30 62 14 85-23" fill="#d5ed98" stroke="#193c32" stroke-width="6" stroke-linejoin="round"/>
<path d="M208 126c28-71 80-98 95-64 16 37-11 74-85 91 64-10 84 17 65 46-20 30-62 14-85-23" fill="#d5ed98" stroke="#193c32" stroke-width="6" stroke-linejoin="round"/>
<path d="M105 108h110c12 0 22 10 22 22v65c0 12-10 22-22 22h-40l-35 28v-28h-35c-12 0-22-10-22-22v-65c0-12 10-22 22-22z" fill="#193c32"/>
<path d="M143 140c-7-8-26-9-30 2-6 15 27 12 27 27 0 13-21 15-29 5" fill="none" stroke="#faf9f4" stroke-width="7" stroke-linecap="round"/>
<path d="M161 133v49h14c21 0 23-25 1-25h-15m0 0h13c18 0 18-24 0-24h-13" fill="none" stroke="#faf9f4" stroke-width="7" stroke-linecap="round" stroke-linejoin="round"/>
<path d="M146 106c0-17-9-27-18-32m46 32c0-17 9-27 18-32" fill="none" stroke="#193c32" stroke-width="5" stroke-linecap="round"/>
</svg>